<svg width="14" height="16" viewBox="0 0 14 16" fill="none" xmlns="http://www.w3.org/2000/svg">
<path d="M10.4267 0.00800697C10.3901 -0.0299928 9.07086 0.0230069 7.92286 1.18C6.77486 2.33599 6.95148 3.66199 6.97732 3.69599C7.00317 3.72999 8.61425 3.78299 9.64271 2.43799C10.6712 1.093 10.4633 0.0470068 10.4267 0.00800697ZM13.9956 11.7409C13.944 11.6449 11.4918 10.507 11.7201 8.31896C11.9484 6.12998 13.524 5.52998 13.5487 5.46498C13.5735 5.39998 12.9058 4.67498 12.1983 4.30799C11.6788 4.04924 11.1038 3.901 10.515 3.87399C10.3987 3.87099 9.99487 3.77899 9.16456 3.98999C8.61748 4.12899 7.3844 4.57898 7.04517 4.59698C6.70486 4.61498 5.69255 4.07499 4.60378 3.93199C3.90701 3.80699 3.16824 4.06299 2.63946 4.25999C2.11177 4.45598 1.10808 5.01398 0.405921 6.49697C-0.296234 7.97897 0.0709972 10.327 0.333767 11.057C0.596537 11.7859 1.00685 12.9809 1.70469 13.8529C2.325 14.8369 3.14777 15.5199 3.49131 15.7519C3.83485 15.9839 4.80409 16.1379 5.47609 15.8189C6.0167 15.5109 6.9924 15.3339 7.37794 15.3469C7.7624 15.3599 8.52056 15.5009 9.29702 15.8859C9.91194 16.0829 10.4935 16.0009 11.0761 15.7809C11.6587 15.5599 12.5019 14.7219 13.4863 13.0229C13.86 12.2329 14.0301 11.8059 13.9956 11.7409Z" fill="black"/>
</svg>
