<svg width="34" height="31" viewBox="0 0 34 31" fill="none" xmlns="http://www.w3.org/2000/svg">
<path d="M29.6438 7.68457C29.6438 7.68457 31.3571 7.80809 31.5855 8.15926C31.8166 8.51043 31.8299 9.05051 31.8299 9.64387C31.8299 10.2396 31.8564 11.6056 31.8564 11.6056L31.4474 12.4072C31.4474 12.4072 31.3704 22.6251 31.3704 22.9424C31.3704 23.2572 31.3704 23.6423 30.871 23.8869C30.3716 24.1315 17.68 29.7212 17.2843 29.8714C16.6866 30.0966 16.4024 30.0118 16.4024 30.0118L2.30035 8.50801C2.30035 8.50801 2.34551 7.91949 2.93254 7.77902C3.26988 7.70152 29.6438 7.68457 29.6438 7.68457Z" fill="#F5B03E"/>
<path d="M16.5539 14.7543C16.769 15.2943 16.6708 20.8792 16.6336 24.9407C16.5964 28.9997 16.7478 29.8401 16.6336 29.9806C16.5193 30.1211 16.2086 29.9854 15.3293 29.6294C13.6958 28.9707 5.84919 25.4299 5.27278 25.115C4.69638 24.8002 3.28857 24.1487 3.05747 23.7975C2.82638 23.4464 2.70153 20.1793 2.6245 17.5564C2.54747 14.9311 2.47044 12.8313 2.47044 12.8313L2.12513 11.8868C2.12513 11.8868 2.1995 9.3341 2.21278 9.05317C2.23669 8.58817 2.29247 8.3484 2.42263 8.40652C2.60857 8.48645 4.15982 9.64652 8.26638 11.4678C10.8456 12.6085 16.4051 14.3813 16.5539 14.7543Z" fill="#E07F14"/>
<path d="M16.5165 2.7149C17.6667 2.66647 20.8143 4.32545 23.8478 5.23365C26.8812 6.14186 31.4606 7.96795 31.5004 8.07451C31.5376 8.17866 29.657 8.94639 28.4564 9.47194C27.03 10.0944 21.5847 12.446 20.5886 12.8311C19.5898 13.2162 17.2098 14.1171 16.8273 14.0905C16.2907 14.0565 11.2226 12.2353 8.65137 11.1164C6.08012 9.99748 2.86606 8.26342 2.82356 7.84201C2.80496 7.65311 7.55168 6.03772 9.9184 5.0617C14.4872 3.17506 15.6745 2.75123 16.5165 2.7149Z" fill="#FDD717"/>
<path d="M31.843 12.0535C31.8032 12.5088 31.5296 12.6711 30.8336 12.9471C30.1377 13.2232 16.9813 19.4547 16.6785 19.4547C16.3757 19.4547 16.2854 18.4666 16.6174 18.4932C16.798 18.5078 21.1197 16.6357 25.1572 14.766C28.5838 13.1821 31.8643 11.6006 31.8643 11.6006L31.843 12.0535Z" fill="#E37D14"/>
<path d="M2.12246 11.8647C2.12246 11.8647 16.1714 18.3796 16.3095 18.4426C16.4476 18.5055 16.6681 18.4837 16.6681 18.4837L16.6787 19.4549C16.6787 19.4549 16.5486 19.4815 16.4025 19.4404C16.3175 19.4162 2.52887 12.9086 2.46778 12.8892C2.40668 12.8698 2.14106 12.7245 2.08527 12.4169C2.03746 12.1699 2.12246 11.8647 2.12246 11.8647Z" fill="#BA5E0D"/>
<path d="M26.3341 23.5937L23.5849 27.3234L22.3816 27.6988C22.3816 27.6988 22.2834 23.63 22.2435 20.6148C22.1877 16.2094 22.209 12.1915 22.1399 11.9638C22.0257 11.5788 16.6787 9.99728 16.6787 9.99728C16.6787 9.99728 10.6384 11.7241 10.4471 12.1092C10.3621 12.2787 10.4285 15.1317 10.4471 18.4569C10.471 22.6564 10.463 27.505 10.463 27.505C10.463 27.505 9.83883 27.5026 9.76445 27.2919C9.68742 27.0812 9.37929 25.4561 9.37929 25.4561L7.03648 11.2179L5.84648 9.81807L7.49867 6.95057L14.2774 3.90869L16.607 4.3858L19.1277 4.03463L27.123 9.27314L26.1907 10.9975L23.9037 12.0607L26.3341 23.5937Z" fill="#AF0F1B"/>
<path d="M9.75416 11.9618C9.90026 12.2548 9.81526 27.3552 9.81526 27.3552C9.81526 27.3552 9.08479 26.9871 8.14448 26.5754C7.20948 26.1661 6.53745 25.9118 6.47901 25.6987C6.42057 25.4855 6.31698 10.5522 6.31698 10.5522L9.75416 11.9618Z" fill="#DC0D28"/>
<path d="M23.0165 11.6492C22.9288 11.7364 23.0723 27.4059 23.2502 27.4423C23.391 27.4737 26.5918 26.1708 26.5918 26.0376C26.5918 25.9044 26.3341 10.9299 26.3341 10.9299C26.3341 10.9299 23.2768 11.3828 23.0165 11.6492ZM16.6734 3.45117C17.5579 3.45117 18.5354 3.68125 18.8196 4.35695C19.1038 5.03266 19.1676 6.03773 19.1676 6.78852C19.1676 7.50781 19.2951 9.34844 16.8646 9.31938C14.4341 9.29031 14.3624 8.4693 14.3252 6.65773C14.2934 5.14648 14.5138 4.41266 14.7343 4.09781C14.9309 3.81445 15.5843 3.45117 16.6734 3.45117Z" fill="#FF2A23"/>
<path d="M18.078 7.19036C17.5255 7.21942 17.2891 6.11263 16.8641 5.50716C16.4391 4.90411 15.9955 4.49966 16.1549 4.18481C16.285 3.92325 17.4405 3.83849 18.0647 4.63044C18.503 5.18989 18.58 7.16372 18.078 7.19036Z" fill="#FCC9D2"/>
<path d="M14.5215 3.97665C14.5215 3.97665 13.7379 4.70322 13.5334 6.12728C13.3288 7.55134 13.5652 8.65814 13.5652 8.65814C13.5652 8.65814 9.67117 8.55157 8.32711 8.7865C7.00164 9.02142 6.53946 9.55423 6.53946 9.94173C6.53946 10.3292 7.41071 10.6417 8.29524 10.5835C9.17977 10.5254 9.77742 10.4818 9.88899 10.6852C10.0005 10.8887 9.84117 11.2035 8.61133 11.2883C7.38148 11.3755 5.96039 11.2156 5.51945 9.82064C5.07852 8.42564 5.06258 6.00861 5.2193 4.26728C5.37602 2.52595 5.72133 1.53056 6.57664 1.15275C7.47711 0.757982 9.73227 0.692591 11.8626 1.78486C13.9929 2.87712 14.5215 3.97665 14.5215 3.97665Z" fill="#FF2A23"/>
<path d="M10.1095 2.31998C10.3858 1.99545 11.2756 2.00513 11.7511 2.50646C12.2558 3.03928 12.3673 5.06638 11.7192 5.18263C10.9861 5.31342 11.1189 4.21873 10.5823 3.54303C10.0564 2.88185 9.84124 2.63724 10.1095 2.31998Z" fill="#FCC9D2"/>
<path d="M19.0236 4.04715C19.0236 4.04715 22.0065 0.876917 25.4145 0.925354C27.4651 0.954417 27.9858 2.03215 28.0973 2.47778C28.2089 2.9234 29.0589 7.35543 27.9247 9.75551C26.7905 12.1556 24.437 11.5332 24.0678 11.4557C23.595 11.3539 22.5883 11.0391 22.6839 10.7073C22.7795 10.3755 26.1237 11.5695 26.1556 10.2036C26.1875 8.83762 23.7889 8.69231 22.6839 8.66324C21.5789 8.63418 19.685 8.86426 19.685 8.86426C19.685 8.86426 20.017 7.21012 19.7965 6.03067C19.5761 4.85121 19.0236 4.04715 19.0236 4.04715Z" fill="#FF2A23"/>
<path d="M26.3284 2.07564C26.7534 2.47768 26.9287 4.79541 26.6604 5.9458C26.3921 7.09619 26.1557 7.58541 25.6032 7.48611C25.141 7.40135 24.8621 5.14416 24.6417 4.34979C24.4053 3.50213 23.8209 2.60119 24.0573 2.20643C24.4185 1.60096 25.8848 1.65666 26.3284 2.07564Z" fill="#FCC9D2"/>
</svg>
