<svg width="14" height="16" viewBox="0 0 14 16" fill="none" xmlns="http://www.w3.org/2000/svg">
<path d="M4.99546 0.448791C6.56324 -0.16561 8.26804 -0.148712 9.82623 0.496675C10.682 0.862423 11.466 1.41746 12.1333 2.12993C11.9066 2.40688 11.6674 2.66571 11.4361 2.9349C10.9962 3.43618 10.5567 3.93573 10.1176 4.43356C9.67986 3.95559 9.15031 3.60105 8.57121 3.39822C7.83018 3.1428 7.04184 3.12531 6.29268 3.34767C5.54352 3.57003 4.86249 4.02364 4.3243 4.65875C3.85453 5.20429 3.49876 5.8639 3.28355 6.58836L0.93335 4.51121C1.77458 2.60691 3.23111 1.15026 4.99546 0.448791Z" fill="#E33629"/>
<path d="M0.12639 6.55033C0.239878 5.90979 0.428433 5.28949 0.687002 4.70605L2.8 6.57237C2.52366 7.49871 2.52366 8.50292 2.8 9.42926C2.09601 10.0479 1.39167 10.6696 0.687002 11.2944C0.0399032 9.82864 -0.157451 8.15857 0.12639 6.55033Z" fill="#F8BD00"/>
<path d="M7.46703 6.58887H13.8704C14.0893 7.99429 14.0301 9.43969 13.6972 10.8142C13.3908 12.0781 12.7957 13.2204 11.9758 14.1184C11.2561 13.4616 10.5332 12.8098 9.81342 12.153C10.1703 11.8715 10.4748 11.5086 10.7088 11.0861C10.9429 10.6636 11.1016 10.1902 11.1754 9.69431H7.46703C7.46596 8.66 7.46703 7.62443 7.46703 6.58887Z" fill="#587DBD"/>
<path d="M0.933594 11.4941C1.72 10.8036 2.50602 10.1096 3.29167 9.41211C3.59562 10.4275 4.17371 11.3075 4.94334 11.9266C5.42332 12.3129 5.96881 12.581 6.54497 12.7138C7.11265 12.834 7.69494 12.834 8.26262 12.7138C8.82868 12.6049 9.36844 12.3623 9.84718 12.0017C10.6082 12.6775 11.3726 13.3482 12.1336 14.0241C11.3008 14.8861 10.2856 15.4871 9.18742 15.7682C7.97529 16.0925 6.7121 16.077 5.50642 15.7229C4.55284 15.4331 3.66213 14.9222 2.89012 14.2222C2.07308 13.4837 1.4057 12.5531 0.933594 11.4941Z" fill="#319F43"/>
</svg>
