<svg width="24" height="24" viewBox="0 0 24 24" fill="none" xmlns="http://www.w3.org/2000/svg">
<path d="M18 20H6C4.34315 20 3 18.6569 3 17V6.22476C3 4.99606 3.99606 4 5.22476 4H12.0138C12.4903 4 12.8842 4.74032 13.2643 5.55H6C5.44772 5.55 5 5.99772 5 6.55C5 7.10228 5.44772 7.55 6 7.55H14.489L14.5 7.55556H18.001C19.6578 7.55556 21 8.8987 21 10.5556V11H19C17.3431 11 16 12.3431 16 14C16 15.6569 17.3431 17 19 17H21C21 18.6569 19.6569 20 18 20Z" fill="black"/>
<path d="M21 15V13H19C18.4477 13 18 13.4477 18 14C18 14.5523 18.4477 15 19 15H21Z" fill="black"/>
</svg>
